<?xml version="1.0" standalone="no"?>
<!DOCTYPE svg PUBLIC "-//W3C//DTD SVG 20010904//EN"
 "http://www.w3.org/TR/2001/REC-SVG-20010904/DTD/svg10.dtd">
<svg version="1.0" xmlns="http://www.w3.org/2000/svg"
 width="1120.000000pt" height="1120.000000pt" viewBox="0 0 1120.000000 1120.000000"
 preserveAspectRatio="xMidYMid meet">
<metadata>
Created by potrace 1.14, written by Peter Selinger 2001-2017
</metadata>
<g transform="translate(0.000000,1120.000000) scale(0.100000,-0.100000)"
fill="#000000" stroke="none">
<path d="M1215 9588 c-30 -18 -44 -34 -56 -65 -23 -60 -8 -155 31 -194 8 -8
40 -31 70 -49 30 -19 57 -38 58 -42 2 -5 9 -8 16 -8 6 0 23 -9 36 -19 14 -11
72 -55 130 -98 58 -43 107 -80 110 -83 3 -3 32 -28 64 -55 33 -28 83 -70 110
-95 82 -72 386 -378 456 -459 36 -41 70 -79 75 -85 6 -6 35 -40 65 -76 30 -36
57 -67 60 -70 8 -7 89 -109 120 -150 14 -18 30 -38 35 -44 29 -32 195 -257
195 -265 0 -5 3 -11 8 -13 12 -5 112 -144 112 -156 0 -6 3 -12 8 -14 9 -4 64
-87 75 -112 4 -10 10 -16 13 -13 6 5 -108 211 -132 238 -8 8 -14 18 -14 22 0
3 -25 46 -55 96 -30 50 -55 95 -55 101 0 5 -4 10 -8 10 -5 0 -21 21 -35 48
-14 26 -60 101 -101 166 -42 65 -76 120 -76 123 0 2 -6 10 -12 18 -7 7 -26 34
-43 61 -72 115 -157 240 -320 469 -49 69 -70 96 -90 119 -6 6 -22 27 -35 46
-14 19 -32 44 -41 55 -153 184 -209 247 -303 340 -106 105 -214 195 -235 195
-5 0 -11 4 -13 8 -1 4 -25 18 -52 31 -59 27 -143 37 -171 19z"/>
<path d="M109 9306 c-3 -3 -18 -7 -34 -10 -34 -6 -75 -51 -75 -81 0 -83 55
-149 134 -161 28 -4 53 -8 56 -9 3 -1 32 -7 65 -14 191 -41 597 -175 616 -203
3 -5 10 -8 15 -7 30 7 444 -198 678 -335 52 -31 100 -56 105 -56 6 0 11 -4 11
-10 0 -5 7 -10 15 -10 8 0 15 -4 15 -10 0 -5 4 -10 9 -10 12 0 145 -82 149
-92 2 -5 8 -8 14 -8 5 0 24 -11 41 -24 18 -13 46 -31 62 -41 33 -19 22 -9 -39
38 -16 12 -34 27 -40 32 -6 6 -27 22 -46 35 -19 13 -41 30 -47 36 -7 7 -28 22
-48 34 -19 12 -35 27 -35 32 0 6 -3 9 -6 5 -3 -3 -13 1 -22 9 -34 28 -193 144
-198 144 -3 0 -10 5 -17 10 -25 22 -178 130 -183 130 -2 0 -29 18 -59 40 -30
22 -57 40 -60 40 -3 0 -11 5 -18 10 -36 32 -361 230 -376 230 -5 0 -11 3 -13
8 -1 4 -23 18 -48 31 -285 150 -418 199 -576 216 -22 3 -43 3 -45 1z"/>
<path d="M7627 9174 c-1 -1 -63 -4 -137 -8 -74 -3 -145 -8 -156 -10 -12 -2
-43 -5 -70 -7 -27 -1 -53 -4 -58 -7 -4 -2 -27 -6 -51 -8 -24 -2 -55 -6 -69 -9
-14 -3 -38 -7 -53 -10 -28 -5 -215 -44 -243 -50 -8 -2 -30 -8 -48 -14 -18 -5
-36 -10 -40 -11 -4 0 -32 -8 -62 -17 -30 -9 -59 -18 -65 -19 -21 -4 -188 -64
-277 -99 -178 -71 -567 -271 -576 -296 -2 -5 -10 -9 -17 -9 -8 0 -20 -6 -27
-13 -7 -7 -31 -24 -53 -37 -70 -43 -295 -212 -295 -222 0 -5 -4 -8 -10 -8 -5
0 -18 -8 -28 -17 -10 -10 -54 -49 -97 -88 -85 -76 -136 -126 -230 -227 -105
-113 -130 -141 -209 -243 -42 -55 -83 -107 -89 -115 -25 -31 -150 -225 -148
-229 2 -2 -1 -7 -6 -10 -18 -12 -202 -352 -209 -386 -1 -5 -15 -39 -32 -75
-46 -99 -144 -368 -157 -434 -3 -10 -9 -33 -15 -51 -6 -18 -12 -41 -14 -51 -3
-10 -14 -59 -26 -109 -21 -92 -23 -100 -34 -170 -3 -23 -8 -50 -10 -61 -2 -12
-7 -43 -10 -70 -4 -27 -9 -65 -11 -84 -23 -179 -35 -536 -19 -562 4 -6 2 -8
-3 -5 -6 4 -21 40 -33 79 -11 40 -39 125 -61 188 -22 63 -42 120 -43 125 -4
15 -25 67 -36 90 -5 11 -18 43 -29 70 -37 97 -154 345 -184 388 -10 15 -16 27
-13 27 3 0 -10 25 -29 55 -19 30 -35 56 -35 60 0 6 -142 238 -150 245 -3 3
-31 41 -60 85 -30 44 -57 82 -60 85 -3 3 -30 37 -59 75 -30 39 -60 77 -67 85
-8 8 -42 48 -76 88 -102 119 -347 361 -444 438 -20 16 -46 37 -58 48 -51 45
-220 168 -316 232 -58 38 -108 73 -111 77 -3 5 -9 8 -13 8 -3 -1 -28 13 -56
30 -27 16 -51 29 -54 27 -2 -2 -12 4 -22 13 -20 18 -214 117 -324 167 -59 26
-296 120 -320 127 -3 0 -32 9 -65 19 -33 10 -71 20 -85 22 -24 4 -24 4 5 -15
55 -37 79 -55 170 -131 49 -42 103 -87 120 -100 63 -54 307 -300 380 -385 43
-49 88 -102 101 -117 13 -15 24 -32 24 -37 0 -5 3 -11 8 -13 4 -1 30 -32 57
-68 28 -36 52 -67 55 -70 3 -3 10 -12 15 -21 6 -9 44 -68 86 -130 41 -63 79
-121 82 -129 4 -8 15 -27 25 -42 29 -45 71 -118 103 -182 17 -33 35 -68 40
-76 48 -79 235 -543 254 -630 2 -8 4 -15 5 -15 1 0 3 -7 5 -15 8 -34 15 -60
44 -163 16 -59 30 -110 29 -112 0 -3 3 -18 6 -33 22 -99 47 -231 50 -267 2
-16 6 -43 9 -60 3 -16 8 -55 12 -85 3 -30 8 -71 10 -90 3 -19 7 -55 10 -80 2
-25 7 -54 9 -65 2 -11 10 -54 17 -95 7 -41 13 -77 14 -80 2 -8 16 -73 20 -95
2 -11 4 -20 5 -20 2 0 5 -16 13 -57 3 -15 8 -31 11 -36 3 -5 7 -19 9 -33 3
-13 17 -64 32 -114 14 -49 28 -94 29 -100 4 -12 10 -31 42 -115 13 -36 24 -69
24 -72 0 -7 79 -198 105 -253 8 -16 31 -66 51 -110 21 -44 40 -82 43 -85 3 -3
17 -27 31 -55 13 -27 41 -79 62 -114 21 -34 38 -65 38 -67 0 -6 151 -235 174
-265 12 -14 28 -36 36 -49 42 -63 187 -242 270 -333 116 -128 395 -397 436
-420 8 -4 26 -19 40 -32 14 -13 51 -43 82 -67 32 -24 59 -45 62 -48 3 -3 34
-25 70 -49 36 -25 68 -50 72 -55 4 -6 8 -7 8 -3 0 4 10 -1 22 -13 12 -11 25
-20 29 -20 4 0 14 -6 21 -13 7 -7 65 -43 128 -80 63 -37 122 -72 130 -77 8 -5
40 -22 70 -37 30 -15 57 -31 58 -35 2 -4 9 -8 16 -8 7 0 47 -18 89 -39 42 -22
77 -37 77 -34 0 3 6 1 13 -5 33 -28 407 -165 582 -214 125 -35 401 -95 475
-104 25 -3 52 -7 60 -9 8 -3 43 -7 77 -10 35 -4 72 -8 84 -10 141 -27 745 -26
959 1 14 2 44 5 66 7 23 3 46 6 50 9 5 2 23 5 39 6 30 2 70 9 70 12 0 1 9 3
20 5 11 1 36 5 55 8 19 3 76 15 125 27 50 11 101 23 115 26 14 3 56 14 94 25
38 12 76 22 85 24 23 5 280 94 316 109 39 17 135 56 160 66 11 5 54 24 95 43
41 18 98 44 127 57 29 13 50 27 48 31 -3 4 2 10 11 13 9 4 13 2 8 -5 -4 -7 2
-6 17 1 30 16 39 25 17 17 -41 -15 -11 5 90 59 59 31 117 62 129 68 13 6 23
14 23 19 0 4 7 7 15 7 8 0 15 5 15 11 0 5 4 8 9 4 5 -3 15 1 23 8 7 7 49 35
93 62 44 27 82 53 83 57 2 4 9 8 16 8 7 0 21 8 32 18 10 10 27 21 37 25 10 4
15 11 12 17 -3 5 0 8 7 5 7 -3 25 6 40 20 15 14 32 25 38 25 5 0 10 4 10 10 0
5 11 12 25 16 14 3 25 10 25 15 0 5 -38 -11 -85 -36 -47 -25 -85 -43 -85 -40
0 4 -13 -3 -29 -14 -16 -12 -43 -24 -60 -27 -17 -4 -31 -10 -31 -15 0 -5 -8
-9 -18 -9 -10 0 -28 -7 -40 -16 -12 -8 -22 -12 -22 -8 0 5 -5 3 -12 -4 -7 -7
-18 -12 -26 -12 -8 0 -28 -6 -45 -14 -30 -14 -245 -85 -277 -91 -8 -2 -15 -4
-15 -5 0 -1 -9 -3 -20 -5 -31 -5 -77 -15 -115 -25 -19 -5 -51 -12 -70 -15 -19
-3 -42 -8 -50 -10 -8 -2 -34 -7 -58 -10 -24 -3 -53 -7 -65 -10 -20 -5 -47 -8
-167 -20 -25 -3 -80 -7 -124 -9 -43 -3 -80 -7 -83 -10 -3 -3 -15 -1 -28 4 -13
5 -26 6 -29 3 -9 -9 -56 -10 -56 -2 0 4 -12 4 -27 0 -16 -4 -40 -4 -55 0 -17
5 -28 4 -28 -2 0 -6 -5 -7 -10 -4 -6 4 -45 8 -88 11 -91 4 -177 12 -212 18
-14 3 -47 8 -75 11 -55 6 -85 11 -180 30 -32 6 -118 27 -250 59 -5 2 -17 5
-25 8 -8 3 -55 18 -105 34 -80 25 -194 67 -295 110 -53 23 -268 130 -325 163
-94 52 -100 56 -105 61 -3 3 -31 21 -62 40 -32 19 -58 38 -58 42 0 4 -5 8 -10
8 -12 0 -134 88 -234 169 -149 120 -374 344 -467 466 -13 17 -29 35 -35 40 -6
6 -24 28 -40 50 -16 22 -31 42 -34 45 -14 12 -171 251 -206 313 -137 240 -237
469 -311 711 -13 44 -26 92 -29 106 -2 14 -8 36 -13 50 -7 19 -28 113 -36 160
-1 3 -5 21 -10 40 -4 19 -9 46 -11 60 -1 14 -3 25 -4 25 -1 0 -3 14 -5 30 -1
17 -6 57 -10 90 -5 33 -9 77 -9 97 -1 21 -4 38 -7 38 -7 0 -3 557 5 615 3 22
7 57 10 77 7 64 16 122 21 148 3 14 8 39 11 55 3 17 10 50 15 75 6 25 12 56
14 70 2 14 11 50 20 80 8 30 20 73 27 95 73 262 219 591 366 825 50 80 86 134
93 140 3 3 12 15 18 28 13 25 34 53 64 84 9 10 17 21 17 24 0 4 12 21 28 39
15 17 41 50 59 71 96 120 291 316 413 414 30 25 57 47 60 50 15 15 104 83 165
125 39 27 72 52 75 55 3 3 16 12 30 20 14 8 72 43 130 78 113 68 327 175 450
224 87 35 237 88 263 93 9 2 20 6 25 8 10 7 233 65 274 72 18 3 40 8 48 10 8
2 31 6 50 9 19 3 44 7 55 10 108 21 268 37 435 41 74 2 137 5 140 6 3 1 9 1
13 0 5 -1 56 -4 115 -6 162 -8 264 -17 342 -30 14 -3 45 -7 70 -11 25 -3 53
-8 62 -10 10 -3 29 -7 43 -10 58 -10 205 -45 269 -64 21 -6 46 -13 55 -15 17
-4 183 -61 216 -74 11 -5 40 -17 65 -27 129 -51 301 -134 388 -186 34 -21 65
-38 69 -38 3 0 15 -7 25 -17 10 -9 18 -13 18 -10 0 10 -202 159 -222 165 -10
2 -18 8 -18 12 0 6 -116 78 -238 147 -97 56 -301 153 -407 196 -94 37 -312
114 -345 122 -8 2 -51 13 -95 25 -108 29 -116 31 -146 34 -14 1 -30 6 -36 9
-6 4 -28 9 -49 13 -22 3 -50 7 -64 10 -14 2 -41 7 -60 10 -19 2 -46 7 -60 9
-14 3 -50 8 -80 11 -30 3 -68 7 -85 9 -66 7 -423 23 -428 19z"/>
<path d="M8008 8425 c-1 -1 -40 -6 -85 -9 -45 -4 -92 -9 -105 -12 -13 -2 -41
-6 -63 -8 -49 -5 -194 -32 -250 -47 -22 -6 -47 -12 -55 -14 -83 -16 -304 -88
-387 -126 -23 -10 -44 -19 -46 -19 -2 0 -40 -16 -83 -36 -43 -21 -81 -36 -83
-35 -2 2 -7 -1 -10 -6 -3 -4 -24 -17 -46 -28 -120 -60 -298 -173 -426 -270
-174 -132 -403 -355 -519 -505 -19 -25 -37 -47 -40 -50 -36 -32 -210 -301
-279 -433 -41 -80 -65 -129 -136 -292 -34 -78 -122 -362 -131 -420 -1 -11 -3
-20 -4 -20 -1 0 -3 -7 -5 -15 -1 -8 -7 -40 -14 -70 -17 -89 -21 -112 -26 -160
-3 -25 -7 -59 -10 -76 -19 -109 -24 -556 -6 -539 5 6 5 5 16 85 12 98 15 115
18 130 8 31 21 96 22 110 1 8 5 22 7 30 3 8 11 40 18 70 26 117 134 425 173
494 6 12 12 23 12 26 5 40 258 470 276 470 5 0 9 5 9 11 0 10 90 131 114 154
6 6 27 30 47 55 20 25 76 86 125 136 79 81 120 119 230 215 46 40 184 143 234
175 25 16 47 31 50 34 5 6 158 97 251 148 31 18 59 29 62 25 4 -3 7 -1 7 5 0
7 4 12 9 12 5 0 44 16 88 36 102 46 109 49 168 70 28 10 56 22 63 27 6 5 12 7
12 4 0 -3 37 7 83 22 66 23 195 57 282 75 6 1 24 5 40 9 17 3 47 9 68 12 55 8
109 16 137 20 145 25 619 24 740 0 14 -3 45 -7 70 -10 25 -2 56 -7 70 -10 14
-3 41 -8 60 -11 49 -8 242 -53 260 -61 20 -8 20 -8 55 -17 32 -8 107 -32 140
-46 11 -4 63 -25 115 -45 101 -40 325 -148 350 -169 8 -7 30 -19 48 -27 17 -8
32 -17 32 -21 0 -5 5 -8 11 -8 12 0 103 -60 107 -72 2 -4 9 -8 15 -8 9 0 180
-124 213 -155 6 -5 35 -30 64 -55 55 -47 251 -241 284 -282 11 -12 33 -39 50
-59 54 -62 69 -82 138 -179 37 -52 72 -100 78 -107 5 -7 10 -15 10 -18 0 -3
12 -24 27 -48 50 -76 187 -337 179 -337 -4 0 0 -10 8 -22 13 -20 84 -196 91
-223 1 -5 5 -17 8 -25 32 -84 97 -339 113 -445 4 -27 9 -59 10 -70 2 -11 6
-51 10 -90 13 -132 22 -35 18 205 -3 206 -7 292 -14 310 -1 3 -2 8 -1 12 0 4
-6 44 -14 90 -8 45 -12 84 -10 86 2 3 0 12 -4 21 -5 9 -12 33 -15 53 -17 105
-81 319 -144 478 -69 175 -219 467 -244 478 -5 2 -8 8 -8 14 0 6 -30 53 -67
105 -38 53 -75 105 -83 117 -32 46 -189 226 -265 301 -79 80 -200 187 -264
235 -18 14 -38 30 -44 35 -7 6 -28 22 -47 35 -19 13 -37 27 -40 30 -11 14
-251 160 -330 201 -113 60 -267 129 -285 129 -8 0 -15 4 -15 8 0 5 -6 9 -12
10 -7 0 -64 18 -125 40 -62 22 -113 38 -113 36 0 -2 -12 1 -27 7 -25 10 -151
42 -213 55 -117 23 -203 36 -320 50 -58 6 -476 15 -482 9z"/>
<path d="M8047 7364 c-1 -2 -34 -5 -71 -8 -71 -6 -99 -15 -55 -17 34 -2 79 -7
114 -13 17 -3 33 -6 37 -7 4 0 22 -5 40 -10 18 -5 49 -12 68 -15 19 -3 46 -9
60 -14 14 -5 72 -23 130 -41 58 -18 111 -36 118 -42 6 -5 12 -6 12 -3 0 4 12
1 28 -8 15 -8 50 -24 77 -36 86 -37 140 -65 143 -72 2 -5 10 -8 18 -8 7 0 43
-18 79 -40 36 -22 70 -40 75 -40 6 0 10 -4 10 -9 0 -5 14 -14 30 -21 17 -7 30
-16 30 -21 0 -5 5 -9 10 -9 6 0 16 -5 23 -10 7 -6 45 -35 85 -65 40 -30 79
-60 87 -67 7 -7 30 -26 50 -43 58 -48 165 -155 235 -236 36 -40 67 -76 70 -79
11 -10 108 -146 136 -190 16 -25 32 -47 35 -50 22 -18 169 -311 206 -410 13
-36 28 -74 33 -85 8 -18 30 -85 36 -110 2 -5 13 -46 24 -90 25 -92 54 -249 66
-345 19 -157 18 -454 -2 -570 -3 -19 -7 -51 -9 -70 -4 -45 -14 -106 -25 -150
-5 -19 -11 -46 -14 -60 -12 -58 -17 -79 -42 -160 -50 -161 -142 -373 -221
-510 -50 -86 -67 -115 -73 -120 -3 -3 -20 -27 -39 -55 -62 -90 -144 -195 -152
-195 -5 0 -9 -6 -9 -12 0 -7 -62 -74 -139 -148 -142 -139 -166 -160 -261 -229
-30 -22 -60 -44 -65 -49 -6 -5 -24 -17 -40 -28 -17 -10 -33 -22 -36 -27 -3 -5
-10 -9 -15 -9 -5 -1 -27 -12 -49 -26 -65 -42 -327 -172 -346 -172 -10 0 -19
-4 -21 -8 -8 -22 -375 -127 -516 -148 -76 -11 -97 -15 -101 -20 -2 -2 2 -4 10
-5 8 0 30 -2 49 -4 41 -5 295 -5 360 -1 53 3 166 16 195 22 11 3 40 7 65 10
50 6 202 40 240 53 14 5 52 17 85 26 111 33 433 170 455 194 3 3 21 15 40 25
46 25 249 159 277 182 11 11 41 35 65 54 94 76 242 220 309 302 24 29 46 55
49 58 15 13 133 178 143 198 5 12 14 22 19 22 4 0 8 4 8 9 0 5 21 45 47 88 37
63 134 253 139 273 0 3 4 14 9 25 66 162 118 336 145 485 5 30 12 69 15 85 3
17 8 55 10 85 3 30 8 78 11 105 13 110 1 520 -15 520 -1 0 -4 21 -6 48 -3 26
-16 98 -30 160 -14 61 -28 120 -30 131 -9 41 -90 265 -117 326 -70 153 -208
399 -230 408 -4 2 -8 8 -8 13 0 6 -5 15 -10 22 -6 7 -33 41 -61 77 -89 116
-113 142 -204 234 -97 98 -160 155 -217 198 -20 15 -42 33 -50 40 -8 7 -21 18
-30 23 -8 6 -49 34 -91 63 -42 28 -80 52 -86 52 -5 0 -11 4 -13 9 -3 10 -269
149 -323 169 -16 6 -55 21 -85 32 -114 44 -297 99 -352 106 -17 2 -38 6 -48 9
-17 5 -34 8 -112 20 -18 2 -49 7 -68 10 -84 13 -414 28 -423 19z"/>
<path d="M9910 2625 c-11 -13 -10 -14 4 -9 9 3 16 10 16 15 0 13 -6 11 -20 -6z"/>
<path d="M9870 2601 c0 -5 -12 -14 -27 -19 -16 -6 -21 -11 -12 -11 9 -1 27 8
40 19 13 10 18 19 12 20 -7 0 -13 -4 -13 -9z"/>
</g>
</svg>
