<svg width="390" height="200" viewBox="0 0 390 200" fill="none" xmlns="http://www.w3.org/2000/svg">
<g clip-path="url(#clip0_764_23391)">
<path d="M253.399 179.146H136.508L138.635 171.435L142.788 156.38L145.305 147.265L149.013 133.827L156.161 107.92L159.869 94.4793L185.936 0H203.971L213.525 34.6248L230.038 94.4793L233.746 107.92L240.894 133.827L244.602 147.265L251.272 171.435L253.399 179.146Z" fill="white"/>
<path d="M253.399 179.146H136.51L138.637 171.435L142.79 156.38C224.245 151.562 213.527 34.6273 213.527 34.6273L251.275 171.437L253.402 179.148L253.399 179.146Z" fill="#9F4B81"/>
<path d="M277.314 179.146H112.593V194.827H277.314V179.146Z" fill="#ECECED"/>
<path d="M253.399 179.146H136.508L138.635 171.435H251.272L253.399 179.146Z" fill="#9F4B81"/>
<path d="M233.746 107.92C233.746 107.92 231.297 159.645 171.945 171.477L251.272 171.435L233.746 107.92Z" fill="white"/>
<path d="M233.746 107.92H156.161L159.869 94.4792H230.038L233.746 107.92Z" fill="#ECECED"/>
<path d="M244.602 147.265H145.305L149.013 133.827H240.894L244.602 147.265Z" fill="#ECECED"/>
<path d="M301.516 194.623H86.0932C84.631 194.623 83.4457 195.81 83.4457 197.274V197.349C83.4457 198.813 84.631 200 86.0932 200H301.516C302.978 200 304.163 198.813 304.163 197.349V197.274C304.163 195.81 302.978 194.623 301.516 194.623Z" fill="#ECECED"/>
<path d="M90.1787 194.623H55.2944C53.8323 194.623 52.647 195.81 52.647 197.274V197.349C52.647 198.813 53.8323 200 55.2944 200H90.1787C91.6408 200 92.8261 198.813 92.8261 197.349V197.274C92.8261 195.81 91.6408 194.623 90.1787 194.623Z" fill="#ECECED"/>
<path d="M39.2992 194.623H2.64743C1.1853 194.623 0 195.81 0 197.274V197.349C0 198.813 1.1853 200 2.64743 200H39.2992C40.7613 200 41.9466 198.813 41.9466 197.349V197.274C41.9466 195.81 40.7613 194.623 39.2992 194.623Z" fill="#ECECED"/>
<path d="M348.023 194.623H317.938C316.476 194.623 315.291 195.81 315.291 197.274V197.349C315.291 198.813 316.476 200 317.938 200H348.023C349.485 200 350.671 198.813 350.671 197.349V197.274C350.671 195.81 349.485 194.623 348.023 194.623Z" fill="#ECECED"/>
<path d="M387.353 194.623H364.469C363.006 194.623 361.821 195.81 361.821 197.274V197.349C361.821 198.813 363.006 200 364.469 200H387.353C388.815 200 390 198.813 390 197.349V197.274C390 195.81 388.815 194.623 387.353 194.623Z" fill="#ECECED"/>
</g>
<defs>
<clipPath id="clip0_764_23391">
<rect width="390" height="200" fill="white"/>
</clipPath>
</defs>
</svg>
